<svg width="256" height="256" viewBox="0 0 256 256" fill="none" xmlns="http://www.w3.org/2000/svg">
<path fill-rule="evenodd" clip-rule="evenodd" d="M57 0C25.5198 0 0 25.5198 0 57V199C0 230.48 25.5198 256 57 256H199C230.48 256 256 230.48 256 199V57C256 25.5198 230.48 0 199 0H57ZM99.2598 150.449C99.9043 152.148 100.227 154.082 100.227 156.25C100.227 158.828 99.582 161.172 98.293 163.281C97.0039 165.391 95.0117 167.061 92.3164 168.291C89.6797 169.463 86.2227 170.049 81.9453 170.049C78.2539 170.049 74.9141 169.697 71.9258 168.994C68.9375 168.291 66.3887 167.119 64.2793 165.479C62.2285 163.838 60.6465 161.699 59.5332 159.062C58.4199 156.367 57.8633 153.086 57.8633 149.219H29.2109C29.2109 156.602 30.7051 162.988 33.6934 168.379C36.7402 173.711 40.7832 178.105 45.8223 181.562C50.9199 185.02 56.6035 187.598 62.873 189.297C69.1426 190.938 75.5 191.758 81.9453 191.758C89.0352 191.758 95.4512 190.967 101.193 189.385C106.936 187.803 111.857 185.488 115.959 182.441C120.119 179.336 123.283 175.586 125.451 171.191C127.678 166.797 128.791 161.758 128.791 156.074C128.791 150.742 127.854 145.967 125.979 141.748C124.162 137.529 121.438 133.75 117.805 130.41C114.172 127.07 109.689 124.082 104.357 121.445C99.084 118.809 93.0195 116.406 86.1641 114.238C82.2383 113.066 78.752 111.836 75.7051 110.547C72.6582 109.258 70.0801 107.91 67.9707 106.504C65.9199 105.039 64.3379 103.486 63.2246 101.846C62.1699 100.146 61.6426 98.2715 61.6426 96.2207C61.6426 93.6426 62.3457 91.2695 63.752 89.1016C65.2168 86.9336 67.3555 85.2344 70.168 84.0039C73.0391 82.7148 76.584 82.0703 80.8027 82.0703C85.1387 82.0703 88.7422 82.832 91.6133 84.3555C94.543 85.8789 96.7109 87.9883 98.1172 90.6836C99.582 93.3203 100.314 96.3672 100.314 99.8242H128.791C128.791 91.9727 126.799 85.0879 122.814 79.1699C118.83 73.1934 113.264 68.5645 106.115 65.2832C99.0254 61.9434 90.793 60.2734 81.418 60.2734C74.3867 60.2734 67.9414 61.123 62.082 62.8223C56.2227 64.4629 51.125 66.8652 46.7891 70.0293C42.4531 73.1348 39.084 76.8848 36.6816 81.2793C34.2793 85.6738 33.0781 90.5957 33.0781 96.0449C33.0781 101.67 34.2207 106.592 36.5059 110.811C38.8496 115.029 42.043 118.721 46.0859 121.885C50.1289 125.049 54.7285 127.832 59.8848 130.234C65.0996 132.578 70.5781 134.688 76.3203 136.562C81.3594 138.145 85.4316 139.697 88.5371 141.221C91.6426 142.686 94.0449 144.15 95.7441 145.615C97.4434 147.08 98.6152 148.691 99.2598 150.449ZM229.162 190V167.852H174.318V62.0312H145.666V190H164.562H174.318H229.162Z" fill="#F5615E"/>
</svg>
